<svg xmlns="http://www.w3.org/2000/svg" width="42" height="30" viewBox="0 0 42 30">
  <path id="_4" data-name="4" d="M34.994,23.328H38.64V15.9l-6.35-3.1L29.2,3.333H3.36v20H5.326a5,5,0,0,1,1.841-2.42,5.074,5.074,0,0,1,5.826,0,5,5,0,0,1,1.841,2.42H25.486a5,5,0,0,1,1.841-2.42,5.074,5.074,0,0,1,5.826,0A5,5,0,0,1,34.994,23.328Zm0,3.332a5,5,0,0,1-1.841,2.42,5.074,5.074,0,0,1-5.826,0,5,5,0,0,1-1.841-2.42H14.834a5,5,0,0,1-1.841,2.42,5.074,5.074,0,0,1-5.826,0,5,5,0,0,1-1.841-2.42H3.36a3.374,3.374,0,0,1-2.376-.976A3.319,3.319,0,0,1,0,23.328v-20A3.319,3.319,0,0,1,.984.976,3.374,3.374,0,0,1,3.36,0H29.2a3.381,3.381,0,0,1,1.769.5A3.343,3.343,0,0,1,32.206,1.85l2.7,8.681L42,14.1v9.231a3.319,3.319,0,0,1-.984,2.356,3.374,3.374,0,0,1-2.376.976Zm-24.914,0a1.69,1.69,0,0,0,.933-.281,1.664,1.664,0,0,0-.606-3.02,1.686,1.686,0,0,0-1.725.708,1.656,1.656,0,0,0,.209,2.1A1.687,1.687,0,0,0,10.08,26.66Zm20.16,0a1.69,1.69,0,0,0,.933-.281,1.67,1.67,0,0,0,.619-.748,1.656,1.656,0,0,0-.364-1.816,1.688,1.688,0,0,0-2.585.252,1.656,1.656,0,0,0,.209,2.1A1.687,1.687,0,0,0,30.24,26.66Z" fill="#00a0ff"/>
</svg>
