<svg xmlns="http://www.w3.org/2000/svg" width="30" height="30" viewBox="0 0 30 30">
  <path id="_1" data-name="1" d="M8.784,30l-2.39-6.4L0,21.236l2.829-6.229L0,8.792,6.393,6.4,8.784,0l6.209,2.832L21.216,0l2.39,6.4L30,8.792l-2.829,6.215L30,21.208,23.607,23.6,21.216,30l-6.2-2.832Zm6.209-5.932L19.6,26.192l1.768-4.771,4.767-1.77-2.093-4.644,2.122-4.63-4.795-1.77L19.6,3.837,14.993,5.96,10.368,3.837,8.6,8.608l-4.767,1.77,2.122,4.63L3.833,19.622,8.6,21.392l1.768,4.771Zm0-1.954a2.928,2.928,0,1,0,0-.028Zm0-2.832a1.756,1.756,0,1,1,0-.028Z" fill="#00a0ff"/>
</svg>
