<svg xmlns="http://www.w3.org/2000/svg" width="43" height="30" viewBox="0 0 43 30">
  <path id="_2" data-name="2" d="M26.462,3.333a1.674,1.674,0,0,1-.484,1.179,1.645,1.645,0,0,1-2.339,0,1.674,1.674,0,0,1-.484-1.179H3.308v5a8.319,8.319,0,0,1,2.435,2.94A8.386,8.386,0,0,1,6.615,15a8.387,8.387,0,0,1-.873,3.727,8.319,8.319,0,0,1-2.435,2.94v5H23.154a1.673,1.673,0,0,1,.484-1.178,1.645,1.645,0,0,1,2.339,0,1.673,1.673,0,0,1,.484,1.178H39.692v-5a8.368,8.368,0,0,1,0-13.333v-5ZM43,26.667a3.346,3.346,0,0,1-.969,2.357A3.3,3.3,0,0,1,39.692,30H3.308a3.3,3.3,0,0,1-2.339-.976A3.347,3.347,0,0,1,0,26.667v-6.85l.827-.483A4.982,4.982,0,0,0,2.644,17.5,5.03,5.03,0,0,0,3.308,15a5.03,5.03,0,0,0-.664-2.5A4.981,4.981,0,0,0,.827,10.667L0,10.183V3.333A3.346,3.346,0,0,1,.969.976,3.3,3.3,0,0,1,3.308,0H39.692a3.3,3.3,0,0,1,2.339.976A3.346,3.346,0,0,1,43,3.333v6.85l-.827.483a5.017,5.017,0,0,0,0,8.667l.827.483Zm-18.192-5a1.645,1.645,0,0,1-.919-.281,1.669,1.669,0,0,1,.6-3.021,1.648,1.648,0,0,1,1.7.709,1.677,1.677,0,0,1-.206,2.1A1.648,1.648,0,0,1,24.808,21.667Zm0-5a1.645,1.645,0,0,1-.919-.281,1.669,1.669,0,0,1,.6-3.02,1.648,1.648,0,0,1,1.7.709,1.677,1.677,0,0,1-.206,2.1A1.647,1.647,0,0,1,24.808,16.667Zm0-5a1.645,1.645,0,0,1-.919-.281,1.669,1.669,0,0,1,.6-3.02,1.648,1.648,0,0,1,1.7.709,1.677,1.677,0,0,1-.206,2.1A1.647,1.647,0,0,1,24.808,11.667Z" fill="#00a0ff"/>
</svg>
