<svg xmlns="http://www.w3.org/2000/svg" width="31" height="30" viewBox="0 0 31 30">
  <path id="_3" data-name="3" d="M24.795,5.6h3.1a3.124,3.124,0,0,1,2.191.894,3.027,3.027,0,0,1,.908,2.157V26.953a3.027,3.027,0,0,1-.908,2.157A3.124,3.124,0,0,1,27.893,30H3.1A3.124,3.124,0,0,1,.912,29.11,3.027,3.027,0,0,1,0,26.953a2.493,2.493,0,0,1,0-.488V8.281A3.02,3.02,0,0,1,.63,6.447,3.1,3.1,0,0,1,2.251,5.352L20.844.12A3.142,3.142,0,0,1,23.2.386,3.06,3.06,0,0,1,24.671,2.21a3.007,3.007,0,0,1,.124.839Zm0,3.051V21.232a3.019,3.019,0,0,1-.626,1.834,3.1,3.1,0,0,1-1.621,1.095l-9.932,2.792H27.893V8.647ZM3.1,8.281V26.464L21.7,21.232V3.049Zm21.692,6.468V11.7h3.1v3.051Zm-7.747-1.525a1.567,1.567,0,0,1-.861-.257,1.531,1.531,0,0,1-.571-.685,1.508,1.508,0,0,1,.336-1.662,1.563,1.563,0,0,1,2.384.231,1.508,1.508,0,0,1-.193,1.926A1.562,1.562,0,0,1,17.048,13.224Z" transform="translate(0.008 -0.003)" fill="#00a0ff"/>
</svg>
