<svg xmlns="http://www.w3.org/2000/svg" width="25" height="22" viewBox="0 0 25 22">
  <path id="Path_1" data-name="Path 1" d="M24.4,15.481a2.168,2.168,0,0,0-3.752,0L10.33,33.156a2.071,2.071,0,0,0,0,2.163A2.122,2.122,0,0,0,12.206,36.4H32.844a2.122,2.122,0,0,0,1.876-1.081,2.07,2.07,0,0,0,0-2.163Zm-3,5.315a1.126,1.126,0,0,1,2.251,0V27.47a1.126,1.126,0,0,1-2.251,0Zm1.126,11.556a1.526,1.526,0,0,1-1.532-1.514,1.552,1.552,0,0,1,1.532-1.545,1.529,1.529,0,1,1,0,3.059Z" transform="translate(-10.025 -14.4)" fill="#ef1b5c"/>
</svg>
