<svg xmlns="http://www.w3.org/2000/svg" width="21" height="22" viewBox="0 0 21 22">
  <path id="Path_8" data-name="Path 8" d="M10.685,11.482a.91.91,0,0,1,0-1.3.9.9,0,0,1,1.291,0,.91.91,0,0,1,0,1.3A.9.9,0,0,1,10.685,11.482ZM16.46,13.9a.91.91,0,0,0,0,1.3.9.9,0,0,0,1.291,0,.91.91,0,0,0,0-1.3A.942.942,0,0,0,16.46,13.9ZM3.98,10.3a1.193,1.193,0,0,1,.589-1.867c.793-.319,1.563-.615,2.356-.911A.3.3,0,0,0,7.151,7.2q.034-1.263.136-2.527c.068-.911.7-1.343,1.812-1.093.566.159,1.359.364,2.129.592a.372.372,0,0,0,.476-.159c.5-.637,1.019-1.275,1.518-1.912a1.2,1.2,0,0,1,1.993,0c.521.637,1.042,1.275,1.563,1.935a.323.323,0,0,0,.385.137c.793-.228,1.608-.455,2.4-.66a1.191,1.191,0,0,1,1.585,1.161c.045.842.091,1.662.136,2.5a.283.283,0,0,0,.226.319c.77.273,1.518.569,2.288.865a1.21,1.21,0,0,1,.657,1.935c-.43.683-.883,1.366-1.336,2.049a.29.29,0,0,0,0,.41c.476.683.929,1.389,1.382,2.094a1.213,1.213,0,0,1-.612,1.889l-2.31.888a.324.324,0,0,0-.249.341c-.023.842-.091,1.684-.136,2.527a1.194,1.194,0,0,1-1.585,1.138c-.815-.228-1.631-.432-2.446-.66a.28.28,0,0,0-.34.114c-.521.66-1.042,1.3-1.563,1.958a1.2,1.2,0,0,1-1.993,0c-.521-.637-1.065-1.3-1.563-1.958a.292.292,0,0,0-.362-.114c-.793.228-1.585.41-2.356.66A1.237,1.237,0,0,1,7.31,20.405c0-.8-.091-1.616-.113-2.413a.3.3,0,0,0-.226-.319c-.793-.3-1.585-.592-2.378-.911a1.19,1.19,0,0,1-.612-1.8c.453-.728.906-1.434,1.382-2.162a.289.289,0,0,0,0-.41C4.886,11.71,4.433,11,3.98,10.3Zm13.137,2.049a2.208,2.208,0,1,0,2.2,2.208A2.2,2.2,0,0,0,17.117,12.347Zm-6.183,3.505A.539.539,0,0,0,11,16.6a.533.533,0,0,0,.747-.068L17.5,9.57a.539.539,0,0,0-.068-.751.533.533,0,0,0-.747.068ZM9.122,10.822a2.2,2.2,0,1,0,2.2-2.208A2.234,2.234,0,0,0,9.122,10.822Z" transform="translate(-3.74 -1.575)" fill="#00a0ff"/>
</svg>
