<svg xmlns="http://www.w3.org/2000/svg" width="20" height="20" viewBox="0 0 20 20">
  <path id="telegram" d="M10,8A10,10,0,1,0,20,18,10,10,0,0,0,10,8Zm4.635,6.8c-.15,1.581-.8,5.418-1.133,7.19-.14.749-.416,1-.683,1.025-.581.053-1.022-.384-1.584-.752-.88-.577-1.377-.936-2.232-1.5-.987-.651-.347-1.008.215-1.593.147-.153,2.706-2.48,2.755-2.691a.2.2,0,0,0-.047-.177.231.231,0,0,0-.207-.02q-.132.03-4.218,2.788a1.9,1.9,0,0,1-1.084.4A7.134,7.134,0,0,1,4.863,19.1c-.626-.2-1.124-.311-1.081-.657q.034-.27.744-.552,4.373-1.905,5.832-2.512c2.777-1.155,3.354-1.356,3.73-1.362a.658.658,0,0,1,.387.116.421.421,0,0,1,.142.271A1.765,1.765,0,0,1,14.635,14.8Z" transform="translate(0 -8)" fill="#fff"/>
</svg>
