<svg xmlns="http://www.w3.org/2000/svg" width="20" height="20" viewBox="0 0 20 20">
  <path id="vk" d="M1.406,33.406C0,34.812,0,37.075,0,41.6v.8c0,4.525,0,6.788,1.406,8.194S5.075,52,9.6,52h.8c4.525,0,6.788,0,8.194-1.406S20,46.925,20,42.4v-.8c0-4.525,0-6.788-1.406-8.194S14.925,32,10.4,32H9.6C5.075,32,2.812,32,1.406,33.406Zm1.969,4.678H5.658C5.733,41.9,7.417,43.517,8.75,43.85V38.083H10.9v3.292c1.317-.142,2.7-1.642,3.167-3.292h2.15a6.351,6.351,0,0,1-2.925,4.15,6.578,6.578,0,0,1,3.425,4.175H14.35a4.114,4.114,0,0,0-3.45-2.975v2.975h-.258C6.083,46.408,3.483,43.283,3.375,38.083Z" transform="translate(0 -32)" fill="#fff"/>
</svg>
