<svg xmlns="http://www.w3.org/2000/svg" width="20" height="20" viewBox="0 0 20 20">
  <path id="whatsapp" d="M17,34.906a9.914,9.914,0,0,0-15.6,11.96L0,52l5.254-1.379a9.881,9.881,0,0,0,4.737,1.205h0A9.848,9.848,0,0,0,17,34.906ZM10,50.156a8.223,8.223,0,0,1-4.2-1.147l-.3-.179-3.116.817.83-3.04-.2-.312a8.253,8.253,0,1,1,15.308-4.379A8.329,8.329,0,0,1,10,50.156Zm4.518-6.17c-.246-.125-1.464-.723-1.692-.8s-.393-.125-.558.125-.638.8-.786.973-.29.188-.536.063A6.741,6.741,0,0,1,7.571,41.4c-.254-.437.254-.406.728-1.353a.459.459,0,0,0-.022-.433c-.062-.125-.558-1.344-.763-1.839s-.406-.415-.558-.424-.308-.009-.473-.009a.917.917,0,0,0-.661.308,2.783,2.783,0,0,0-.866,2.067,4.851,4.851,0,0,0,1.009,2.563A11.066,11.066,0,0,0,10.2,46.018a4.846,4.846,0,0,0,2.973.621,2.536,2.536,0,0,0,1.67-1.179,2.071,2.071,0,0,0,.143-1.179C14.924,44.17,14.759,44.107,14.513,43.987Z" transform="translate(0 -32)" fill="#fff"/>
</svg>
