<svg xmlns="http://www.w3.org/2000/svg" width="20" height="20" viewBox="0 0 20 20">
  <path id="Yandex_Zen_logo_icon" d="M11.929,11.929C10.357,13.55,10.243,15.571,10.107,20c4.129,0,6.979-.014,8.45-1.443C19.986,17.086,20,14.1,20,10.107c-4.429.143-6.45.25-8.071,1.821M0,10.107c0,3.993.014,6.979,1.443,8.45C2.914,19.986,5.764,20,9.893,20c-.143-4.429-.25-6.45-1.821-8.071C6.45,10.357,4.429,10.243,0,10.107M9.893,0C5.771,0,2.914.014,1.443,1.443.014,2.914,0,5.9,0,9.893c4.429-.143,6.45-.25,8.071-1.821C9.643,6.45,9.757,4.429,9.893,0m2.036,8.071C10.357,6.45,10.243,4.429,10.107,0c4.129,0,6.979.014,8.45,1.443C19.986,2.914,20,5.9,20,9.893c-4.429-.143-6.45-.25-8.071-1.821" fill="#fff"/>
</svg>
